<?xml version="1.0" encoding="UTF-8" standalone="no"?>
<svg
   xmlns:dc="http://purl.org/dc/elements/1.1/"
   xmlns:cc="http://creativecommons.org/ns#"
   xmlns:rdf="http://www.w3.org/1999/02/22-rdf-syntax-ns#"
   xmlns:svg="http://www.w3.org/2000/svg"
   xmlns="http://www.w3.org/2000/svg"
   viewBox="0 0 517.33331 150.66667"
   height="150.66667"
   width="517.33331"
   xml:space="preserve"
   id="svg2"
   version="1.1"><metadata
     id="metadata8"><rdf:RDF><cc:Work
         rdf:about=""><dc:format>image/svg+xml</dc:format><dc:type
           rdf:resource="http://purl.org/dc/dcmitype/StillImage" /></cc:Work></rdf:RDF></metadata><defs
     id="defs6" /><g
     transform="matrix(1.3333333,0,0,-1.3333333,0,150.66667)"
     id="g10"><g
       transform="scale(0.1)"
       id="g12"><path
         id="path14"
         style="fill:#424243;fill-opacity:1;fill-rule:evenodd;stroke:none"
         d="M 848.98,381.02 475.512,4.48828 V 754.488 H 848.98 V 381.02" /><path
         id="path16"
         style="fill:#cc692f;fill-opacity:1;fill-rule:evenodd;stroke:none"
         d="M 0,753.012 373.52,1130 V 380 H 0 v 373.012" /><path
         id="path18"
         style="fill:#424243;fill-opacity:1;fill-rule:nonzero;stroke:none"
         d="m 1026.72,393.012 h -45.1602 v 349.059 h 45.1602 z m 78.01,12.187 v 41.563 c 36.56,-13.051 76.09,-19.532 118.59,-19.532 60.08,0 90.16,21.95 90.16,65.93 0,37.391 -22.15,56.102 -66.41,56.102 h -49.84 c -73.13,0 -109.69,31.718 -109.69,95.148 0,66.762 46.8,100.16 140.47,100.16 40.62,0 78.44,-4.922 113.44,-14.691 V 688.48 c -35,13 -72.82,19.532 -113.44,19.532 -63.56,0 -95.31,-21.211 -95.31,-63.602 0,-37.422 21.48,-56.09 64.53,-56.09 h 49.84 c 74.38,0 111.56,-31.718 111.56,-95.16 0,-68.43 -45.11,-102.648 -135.31,-102.648 -42.5,0 -82.03,4.879 -118.59,14.687 z" /><path
         id="path20"
         style="fill:#424243;fill-opacity:1;fill-rule:nonzero;stroke:none"
         d="m 1389.57,393.012 148.28,349.058 h 50 l 148.91,-349.058 h -47.66 l -46.4,109.84 h -116.57 l 12.35,36.718 h 87.18 l -64.37,155.629 -124.84,-302.187 z" /><path
         id="path22"
         style="fill:#424243;fill-opacity:1;fill-rule:nonzero;stroke:none"
         d="M 1779.41,393.012 V 742.07 h 149.07 c 66.32,0 99.53,-27.109 99.53,-81.25 0,-39.691 -21.68,-68.09 -65,-85.16 46.25,-8.672 69.37,-35.109 69.37,-79.371 0,-68.867 -36.36,-103.277 -109.06,-103.277 z m 141.25,36.558 c 41.64,0 62.5,21.168 62.5,63.59 0,41.141 -27.93,61.719 -83.75,61.719 h -19.53 v 29.531 c 66.64,8.949 100,33.051 100,72.352 0,32.5 -18.55,48.75 -55.62,48.75 h -99.69 V 429.57 Z" /><path
         id="path24"
         style="fill:#424243;fill-opacity:1;fill-rule:nonzero;stroke:none"
         d="m 2486.48,406.762 c -28.12,-10.864 -58.51,-16.25 -91.09,-16.25 -126.48,0 -189.69,60.617 -189.69,181.867 0,114.769 61.02,172.191 183.13,172.191 35,0 67.54,-4.922 97.65,-14.691 V 690.82 c -30.11,11.45 -61.05,17.192 -92.81,17.192 -95.23,0 -142.81,-45.242 -142.81,-135.633 0,-96.789 46.87,-145.149 140.62,-145.149 15,0 31.61,1.911 49.85,5.782 v 118.75 h 45.15 z" /><path
         id="path26"
         style="fill:#424243;fill-opacity:1;fill-rule:nonzero;stroke:none"
         d="M 2555.78,393.012 V 742.07 h 149.06 c 66.33,0 99.54,-27.929 99.54,-83.75 0,-45.308 -32.47,-78.91 -97.35,-100.781 l 119.85,-164.527 h -59.54 l -111.09,157.027 v 29.531 c 66.64,10.508 100,36.129 100,76.879 0,32.18 -18.55,48.281 -55.63,48.281 h -99.68 V 393.012 Z" /><path
         id="path28"
         style="fill:#424243;fill-opacity:1;fill-rule:nonzero;stroke:none"
         d="m 3032.38,427.23 c 83.32,0 125,47.071 125,141.25 0,93 -41.68,139.532 -125,139.532 -85.11,0 -127.65,-46.532 -127.65,-139.532 0,-94.179 42.54,-141.25 127.65,-141.25 z m -175.31,139.84 c 0,118.321 58.44,177.5 175.31,177.5 115.08,0 172.66,-59.179 172.66,-177.5 0,-117.73 -57.58,-176.558 -172.66,-176.558 -116.87,0 -175.31,58.828 -175.31,176.558 z" /><path
         id="path30"
         style="fill:#424243;fill-opacity:1;fill-rule:nonzero;stroke:none"
         d="M 3265.74,527.852 V 742.07 h 45.16 V 527.852 c 0,-67.114 33.36,-100.622 100.15,-100.622 66.76,0 100.16,33.508 100.16,100.622 V 742.07 h 45.16 V 527.852 c 0,-91.563 -48.44,-137.34 -145.32,-137.34 -96.87,0 -145.31,45.777 -145.31,137.34 z" /><path
         id="path32"
         style="fill:#424243;fill-opacity:1;fill-rule:nonzero;stroke:none"
         d="M 3630,393.012 V 742.07 h 149.06 c 66.33,0 99.53,-27.929 99.53,-83.75 0,-62.929 -46.32,-101.871 -138.9,-116.871 l -9.22,38.121 c 66.64,10.508 100,36.129 100,76.879 0,32.18 -18.56,48.281 -55.63,48.281 h -99.68 V 393.012 Z" /></g></g></svg>